<svg width="17" height="24" viewBox="0 0 17 24" fill="none" xmlns="http://www.w3.org/2000/svg">
<g clip-path="url(#clip0_13_237)">
<path d="M8.48965 23.9394L1.57131 22.0166L0.0295563 4.70471H16.9705L15.4271 22.014L8.48965 23.9394Z" fill="#264DE4"/>
<path d="M14.1058 20.9117L15.4246 6.12012H8.5V22.4676L14.1058 20.9117Z" fill="#2965F1"/>
<path d="M3.56396 12.5409L3.75401 14.6641H8.5V12.5409H3.56396ZM3.18199 8.24341L3.37477 10.3666H8.5V8.24341H3.18199ZM8.5 18.0552L8.49071 18.0576L6.12877 17.4191L5.97776 15.7258H3.84878L4.14588 19.0596L8.49024 20.2669L8.5 20.2642V18.0552Z" fill="#EBEBEB"/>
<path d="M4.01651 0H6.5851V1.07541H5.0907V2.15083H6.58524V3.22617H4.01651V0ZM7.09889 0H9.66755V0.935136H8.17308V1.12215H9.66755V3.27297H7.09896V2.29097H8.59343V2.10396H7.09882L7.09889 0ZM10.1813 0H12.75V0.935136H11.2555V1.12215H12.75V3.27297H10.1813V2.29097H11.6758V2.10396H10.1814L10.1813 0Z" fill="white"/>
<path d="M13.4225 12.5409L13.8053 8.24341H8.4927V10.3666H11.4811L11.2881 12.5409H8.4927V14.6641H11.1043L10.858 17.4178L8.49263 18.0569V20.2659L12.8404 19.0596L12.8723 18.7008L13.3708 13.111L13.4225 12.5409Z" fill="white"/>
</g>
<defs>
<clipPath id="clip0_13_237">
<rect width="17" height="24" fill="white"/>
</clipPath>
</defs>
</svg>
