<svg width="17" height="24" viewBox="0 0 17 24" fill="none" xmlns="http://www.w3.org/2000/svg">
<g clip-path="url(#clip0_13_224)">
<path d="M16.9704 4.70471L15.4271 22.014L8.48964 23.9394L1.57131 22.0166L0.0295525 4.70471H16.9704Z" fill="#E44D26"/>
<path d="M8.5 22.4676L14.1058 20.9117L15.4246 6.12012H8.5V22.4676Z" fill="#F16529"/>
<path d="M5.49977 10.3666H8.5V8.24341H3.18199L3.23272 8.81303L3.75401 14.6641H8.5V12.5409H5.6936L5.49977 10.3666ZM5.97776 15.7258H3.84877L4.14587 19.0596L8.49024 20.2669L8.5 20.2642V18.0552L8.4907 18.0576L6.12877 17.4191L5.97776 15.7258Z" fill="#EBEBEB"/>
<path d="M1.6057 0H2.68347V1.06604H3.66941V0H4.74725V3.22823H3.66947V2.14724H2.68354V3.22823H1.60577L1.6057 0ZM6.16449 1.07056H5.21581V0H8.19174V1.07056H7.24246V3.22823H6.16469V1.07056H6.16449ZM8.66402 0H9.78782L10.4791 1.13432L11.1697 0H12.294V3.22823H11.2206V1.62814L10.4791 2.77596H10.4605L9.71855 1.62814V3.22823H8.66402V0ZM12.8303 0H13.9085V2.1612H15.4241V3.22823H12.8303L12.8303 0Z" fill="white"/>
<path d="M8.4927 14.6641H11.1043L10.858 17.4178L8.49263 18.0569V20.2659L12.8404 19.0596L12.8723 18.7008L13.3708 13.111L13.4225 12.5409H8.4927V14.6641ZM8.4927 10.3615V10.3666H13.6155L13.658 9.88944L13.7547 8.81303L13.8053 8.24341H8.4927V10.3615Z" fill="white"/>
</g>
<defs>
<clipPath id="clip0_13_224">
<rect width="17" height="24" fill="white"/>
</clipPath>
</defs>
</svg>
