<svg width="24" height="24" viewBox="0 0 24 24" fill="none" xmlns="http://www.w3.org/2000/svg">
<path d="M3 3V21H21V3H3ZM12 12H13.5V18C13.4988 18.3975 13.3404 18.7783 13.0593 19.0593C12.7783 19.3404 12.3975 19.4988 12 19.5H10.5C10.1025 19.4988 9.7217 19.3404 9.44065 19.0593C9.1596 18.7783 9.00119 18.3975 9 18V16.5H10.5V18H12V12ZM16.5 12H19.5V13.5H16.5V15H18C18.3975 15.0012 18.7783 15.1596 19.0593 15.4407C19.3404 15.7217 19.4988 16.1025 19.5 16.5V18C19.4988 18.3975 19.3404 18.7783 19.0593 19.0593C18.7783 19.3404 18.3975 19.4988 18 19.5H15V18H18V16.5H16.5C16.1025 16.4988 15.7217 16.3404 15.4407 16.0593C15.1596 15.7783 15.0012 15.3975 15 15V13.5C15.0012 13.1025 15.1596 12.7217 15.4407 12.4407C15.7217 12.1596 16.1025 12.0012 16.5 12Z" fill="#FFCA28"/>
</svg>
