<svg width="27" height="24" viewBox="0 0 27 24" fill="none" xmlns="http://www.w3.org/2000/svg">
<g clip-path="url(#clip0_13_805)">
<path d="M16.6619 14.8682L16.1441 15.7579C16.0674 15.8896 15.957 15.999 15.8241 16.075C15.6911 16.151 15.5402 16.1911 15.3866 16.1911H11.4191C11.2655 16.1911 11.1146 16.151 10.9817 16.075C10.8487 15.999 10.7383 15.8896 10.6616 15.7579L10.1437 14.8682H16.6619ZM18.1118 12.3774L17.1987 13.9462H9.60704L8.69389 12.3774H18.1118ZM17.2322 9.9417L18.1133 11.4554H8.69241L9.5735 9.9417H17.2322ZM15.3865 7.63916C15.5401 7.63916 15.691 7.67919 15.824 7.75523C15.957 7.83127 16.0674 7.94063 16.1441 8.07231L16.6955 9.01968H10.1102L10.6617 8.07231C10.7384 7.94065 10.8488 7.8313 10.9818 7.75526C11.1147 7.67922 11.2656 7.63918 11.4192 7.63916H15.3865Z" fill="#00435B"/>
<path d="M5.64496 7.22608C5.20547 5.11762 5.11108 3.50044 5.39521 2.32622C5.56417 1.62782 5.87299 1.05808 6.34274 0.646947C6.83866 0.212964 7.46556 -9.81487e-06 8.17009 -9.81487e-06C9.33215 -9.81487e-06 10.5539 0.524338 11.8594 1.52034C12.392 1.92667 12.9447 2.41637 13.5186 2.98976C13.5644 2.93164 13.616 2.87676 13.6736 2.82594C15.2963 1.39533 16.6625 0.506286 17.8311 0.163608C18.526 -0.0402881 19.1783 -0.0596968 19.7723 0.138147C20.3994 0.346842 20.899 0.778529 21.2516 1.38302C21.8334 2.38069 21.9867 3.69161 21.7699 5.31036C21.6815 5.97015 21.5303 6.68879 21.3168 7.46754C21.3974 7.47714 21.4781 7.49488 21.5581 7.52107C23.6169 8.1962 25.0749 8.92204 25.9576 9.75171C26.4828 10.2453 26.8257 10.7948 26.9498 11.4031C27.0805 12.0452 26.9529 12.6891 26.6009 13.2932C26.0202 14.2895 24.9524 15.0751 23.4313 15.6975C22.8207 15.9474 22.1295 16.1737 21.3574 16.3773C21.3926 16.456 21.42 16.5395 21.4383 16.6272C21.8778 18.7356 21.9721 20.3528 21.688 21.5271C21.5191 22.2255 21.2101 22.7952 20.7404 23.2063C20.2446 23.6403 19.6176 23.8533 18.9131 23.8533C17.751 23.8533 16.5293 23.3289 15.2238 22.3329C14.6855 21.9222 14.1268 21.4265 13.5462 20.8451C13.4851 20.9397 13.4111 21.0254 13.3264 21.1C11.7036 22.5308 10.3374 23.4196 9.16878 23.7624C8.47395 23.9663 7.82163 23.9857 7.22763 23.7878C6.60051 23.5792 6.1009 23.1475 5.74832 22.543C5.16656 21.5453 5.01321 20.2344 5.23005 18.6156C5.3217 17.9321 5.48064 17.1851 5.70656 16.3737C5.6165 16.3647 5.52773 16.3459 5.44183 16.3177C3.38297 15.6426 1.92497 14.9167 1.04231 14.0871C0.517072 13.5935 0.174194 13.044 0.0501623 12.4356C-0.0806189 11.7936 0.0469982 11.1496 0.399053 10.5455C0.979764 9.54928 2.04753 8.76354 3.5686 8.14131C4.19751 7.88389 4.91164 7.65161 5.71172 7.44333C5.68287 7.37306 5.66052 7.30035 5.64496 7.22608Z" fill="#002B3B"/>
<path d="M20.0018 16.8348C20.1001 16.8176 20.2013 16.8384 20.2845 16.893C20.3676 16.9476 20.4263 17.0318 20.4485 17.128L20.4509 17.1397L20.4727 17.2519C21.1804 20.9329 20.6819 22.7735 18.9772 22.7735C17.3094 22.7735 15.1862 21.2029 12.6077 18.0618C12.5619 18.006 12.5329 17.9386 12.5238 17.8672C12.5148 17.7959 12.5262 17.7235 12.5567 17.6582C12.5872 17.5929 12.6356 17.5374 12.6964 17.498C12.7572 17.4586 12.828 17.4368 12.9006 17.4352H12.9126L13.0485 17.4362C14.1335 17.442 15.1884 17.4046 16.213 17.3239C17.4223 17.2286 18.6853 17.0656 20.0018 16.8348ZM8.2947 14.0523L8.30123 14.0632L8.36937 14.1808C8.91534 15.12 9.48417 16.0113 10.0759 16.8549C10.7728 17.8483 11.5564 18.854 12.4267 19.8721C12.4914 19.9476 12.524 20.0449 12.5179 20.1437C12.5119 20.2425 12.4675 20.3351 12.3942 20.4024L12.3844 20.411L12.2968 20.4856C9.41681 22.9271 7.54495 23.4145 6.68123 21.9477C5.83573 20.5122 6.14225 17.9019 7.60082 14.1168C7.62664 14.0497 7.67092 13.9911 7.72866 13.9477C7.78639 13.9042 7.85526 13.8777 7.92748 13.8709C7.99969 13.8642 8.07237 13.8777 8.13727 13.9097C8.20217 13.9418 8.2567 13.9911 8.2947 14.0523ZM21.4632 8.62055L21.475 8.62441L21.5834 8.66135C25.1382 9.88486 26.4888 11.2294 25.6351 12.6949C24.8002 14.1283 22.373 15.1719 18.3535 15.8258C18.2806 15.8376 18.2059 15.8287 18.1379 15.8C18.07 15.7714 18.0118 15.7242 17.97 15.6639C17.9283 15.6037 17.9047 15.5329 17.9022 15.4599C17.8996 15.3869 17.9181 15.3147 17.9555 15.2517C18.5312 14.2828 19.0498 13.3188 19.5111 12.3595C20.0342 11.2717 20.5252 10.104 20.984 8.85658C21.0173 8.76591 21.0838 8.69096 21.1704 8.6466C21.257 8.60223 21.3573 8.59171 21.4514 8.6171L21.4632 8.62055ZM8.90641 8.00458C8.95041 8.03014 8.98888 8.06403 9.01964 8.10431C9.05039 8.14459 9.07282 8.19047 9.08566 8.23933C9.09849 8.28818 9.10146 8.33906 9.09441 8.38906C9.08737 8.43905 9.07043 8.48718 9.04458 8.5307C8.46872 9.49954 7.95016 10.4636 7.48891 11.4229C6.96579 12.5107 6.47483 13.6784 6.01604 14.9259C5.98198 15.0185 5.91325 15.0946 5.82406 15.1386C5.73487 15.1825 5.63203 15.1909 5.53679 15.1619L5.52498 15.158L5.41656 15.121C1.86177 13.8976 0.511207 12.5531 1.36487 11.0875C2.19976 9.65415 4.62698 8.61049 8.64654 7.95658C8.73619 7.94197 8.82816 7.95898 8.90641 8.00458ZM20.3188 1.9786C21.1643 3.41422 20.8577 6.02458 19.3992 9.8097C19.3734 9.87676 19.3291 9.93532 19.2713 9.97877C19.2136 10.0222 19.1447 10.0488 19.0725 10.0555C19.0003 10.0622 18.9276 10.0488 18.8627 10.0167C18.7978 9.9847 18.7433 9.93531 18.7053 9.87418L18.6988 9.86323L18.6306 9.74562C18.0847 8.80649 17.5158 7.91512 16.9241 7.0715C16.2272 6.07811 15.4436 5.07241 14.5732 4.05439C14.5086 3.97884 14.476 3.88155 14.4821 3.78278C14.4881 3.684 14.5325 3.59134 14.6058 3.52409L14.6156 3.51543L14.7032 3.44082C17.5832 0.999433 19.455 0.512024 20.3188 1.9786ZM8.16855 1.1051C9.83644 1.1051 11.9596 2.67561 14.538 5.81662C14.5838 5.87244 14.6129 5.93986 14.6219 6.01122C14.6309 6.08257 14.6195 6.15499 14.589 6.22026C14.5585 6.28553 14.5101 6.34102 14.4493 6.38043C14.3885 6.41985 14.3178 6.4416 14.2451 6.44322H14.2331L14.0973 6.44239C13.0123 6.43655 11.9575 6.47397 10.9329 6.55467C9.72337 6.64997 8.46039 6.813 7.14393 7.04375C7.04568 7.06095 6.9445 7.04009 6.86137 6.98551C6.77824 6.93092 6.71952 6.84678 6.69737 6.75053L6.69484 6.73874L6.67301 6.62667C5.96524 2.94562 6.46376 1.1051 8.16855 1.1051Z" fill="#FF4154"/>
<path d="M11.7381 7.68726H15.0684C15.3077 7.68724 15.5427 7.74971 15.7498 7.86834C15.9568 7.98698 16.1286 8.15758 16.2477 8.36291L17.9199 11.2456C18.0381 11.4494 18.1003 11.6803 18.1003 11.9152C18.1003 12.1502 18.0381 12.381 17.9199 12.5848L16.2477 15.4675C16.1286 15.6729 15.9568 15.8435 15.7498 15.9621C15.5427 16.0807 15.3077 16.1432 15.0684 16.1432H11.7381C11.2511 16.1432 10.8013 15.8854 10.5588 15.4675L8.88679 12.5848C8.76857 12.381 8.70636 12.1502 8.70636 11.9152C8.70636 11.6803 8.76857 11.4494 8.88679 11.2456L10.5589 8.36291C10.678 8.15756 10.8497 7.98695 11.0568 7.86832C11.2639 7.74968 11.4989 7.68723 11.7381 7.68726ZM14.5609 8.55731C15.0482 8.55731 15.4983 8.81536 15.7406 9.23359L16.9066 11.2462C17.0246 11.4499 17.0867 11.6805 17.0867 11.9152C17.0867 12.1499 17.0246 12.3806 16.9066 12.5842L15.7406 14.5969C15.6215 14.8023 15.4497 14.9731 15.2426 15.0918C15.0355 15.2106 14.8003 15.2731 14.5609 15.273H12.2459C11.7586 15.273 11.3085 15.0151 11.0662 14.5969L9.90014 12.5842C9.78214 12.3806 9.72006 12.1499 9.72006 11.9152C9.72006 11.6805 9.78214 11.4499 9.90014 11.2462L11.0662 9.23359C11.1852 9.02811 11.357 8.85738 11.5641 8.73865C11.7712 8.61992 12.0064 8.5574 12.2458 8.55741L14.5609 8.55731ZM14.0138 9.50896H12.7929C12.5537 9.50893 12.3188 9.57134 12.1118 9.68988C11.9048 9.80841 11.733 9.97889 11.6139 10.1841L10.9978 11.245C10.8793 11.4489 10.8169 11.68 10.8169 11.9152C10.8169 12.1504 10.8793 12.3815 10.9978 12.5854L11.6139 13.6465C11.733 13.8517 11.9048 14.0221 12.1118 14.1407C12.3188 14.2592 12.5537 14.3216 12.7929 14.3216H14.0138C14.5007 14.3216 14.9504 14.0641 15.1929 13.6465L15.809 12.5854C15.9275 12.3815 15.9898 12.1504 15.9898 11.9152C15.9898 11.68 15.9275 11.4489 15.809 11.245L15.1929 10.184C15.0737 9.97878 14.902 9.80831 14.695 9.68977C14.488 9.57123 14.253 9.50893 14.0138 9.50896ZM13.4871 10.4197C13.9736 10.4197 14.423 10.6768 14.6655 11.0938L14.753 11.2441C14.8717 11.4482 14.9343 11.6796 14.9343 11.9151C14.9343 12.1506 14.8717 12.3821 14.753 12.5862L14.6655 12.7364C14.5463 12.9414 14.3746 13.1116 14.1677 13.2299C13.9609 13.3482 13.7261 13.4105 13.4871 13.4105H13.3196C13.0807 13.4105 12.8459 13.3482 12.639 13.2299C12.4321 13.1116 12.2605 12.9414 12.1412 12.7364L12.0538 12.5862C11.935 12.3821 11.8725 12.1506 11.8725 11.9151C11.8725 11.6796 11.935 11.4482 12.0538 11.2441L12.1412 11.0938C12.2605 10.8889 12.4321 10.7187 12.639 10.6003C12.8459 10.482 13.0807 10.4197 13.3196 10.4197H13.4871ZM13.4036 11.317C13.2974 11.317 13.193 11.3446 13.101 11.3971C13.009 11.4496 12.9326 11.5251 12.8794 11.6161C12.8263 11.707 12.7984 11.8101 12.7984 11.9151C12.7984 12.0201 12.8263 12.1233 12.8794 12.2142C12.9325 12.3052 13.0089 12.3807 13.1009 12.4332C13.1929 12.4858 13.2972 12.5134 13.4034 12.5134C13.5096 12.5134 13.614 12.4858 13.706 12.4332C13.7979 12.3807 13.8743 12.3052 13.9275 12.2142C13.9805 12.1233 14.0085 12.0201 14.0085 11.9151C14.0085 11.8101 13.9805 11.707 13.9275 11.6161C13.8743 11.5251 13.7979 11.4497 13.706 11.3972C13.614 11.3447 13.5098 11.317 13.4036 11.317ZM8.49835 11.9151H9.58679H8.49835Z" fill="#FFD94C"/>
</g>
<defs>
<clipPath id="clip0_13_805">
<rect width="27" height="24" fill="white"/>
</clipPath>
</defs>
</svg>
