<svg width="24" height="24" viewBox="0 0 24 24" fill="none" xmlns="http://www.w3.org/2000/svg">
<g clip-path="url(#clip0_13_270)">
<path d="M16.6294 16.5207C14.9419 19.9707 11.9869 22.2919 8.0775 23.055C7.4781 23.202 6.86275 23.2738 6.24562 23.2688C3.99562 23.2688 1.93312 22.3313 0.931875 20.7957C-0.412501 18.75 -0.87 14.4132 3.5625 11.205C3.6525 11.6944 3.83625 12.3657 3.95812 12.7632C3.088 13.4096 2.37577 14.2449 1.875 15.2063C1.05 16.8263 1.14187 18.4444 2.11875 19.9407C2.79375 20.9494 3.8625 21.5625 5.23687 21.75C6.9535 21.9673 8.695 21.6394 10.215 20.8125C12.5981 19.56 14.1862 18.0638 15.225 16.0182C14.9313 15.7146 14.7574 15.315 14.7356 14.8932C14.7199 14.4405 14.8844 14.0001 15.1931 13.6686C15.5017 13.3372 15.9293 13.1417 16.3819 13.125H16.4456C16.8859 13.1228 17.3101 13.29 17.6306 13.5918C17.951 13.8937 18.1432 14.3072 18.1673 14.7468C18.1914 15.1864 18.0455 15.6184 17.76 15.9535C17.4744 16.2885 17.071 16.501 16.6331 16.5469L16.6294 16.5207ZM22.005 12.7332C24.2944 15.3282 24.3563 18.3825 23.4713 20.1544C22.6462 21.7725 20.4713 23.3925 17.5462 23.3925C16.1808 23.3646 14.8376 23.0416 13.6088 22.4457C14.0381 22.14 14.6475 21.6507 14.9831 21.345C15.9307 21.7558 16.9505 21.9737 17.9831 21.9863C19.8769 21.9863 21.3113 21.1013 22.1663 19.4832C22.7156 18.4144 22.7475 17.1619 22.2281 15.8794C21.5909 14.2657 20.4569 12.8965 18.99 11.97C17.0656 10.6728 14.797 9.98126 12.4762 9.98442H11.9269C11.7988 10.2803 11.5904 10.5345 11.3253 10.7181C11.0602 10.9017 10.7489 11.0073 10.4269 11.0232H10.3687C9.92328 11.0177 9.49749 10.8388 9.18182 10.5244C8.86615 10.21 8.68547 9.785 8.67815 9.33956C8.67082 8.89412 8.83744 8.46337 9.14261 8.1388C9.44777 7.81423 9.86745 7.62141 10.3125 7.60129H10.3744C10.6845 7.60153 10.9886 7.68722 11.2532 7.84897C11.5178 8.01072 11.7327 8.24226 11.8744 8.51817H12.3638C16.2638 8.51817 19.6875 10.0144 22.005 12.7332ZM6.48937 17.0457C6.45711 16.7343 6.53256 16.4213 6.70312 16.1588C4.99312 13.1963 4.07812 9.44067 5.4825 5.53129C6.48937 2.59317 9.02437 0.607544 11.7731 0.607544C14.7056 0.607544 17.76 3.17442 18.1256 8.12067C17.6681 7.96879 17.0006 7.74567 16.5994 7.66317C16.5 6.04504 15.1331 2.01379 11.895 2.07379C10.7344 2.10567 9.02437 2.65504 8.145 3.78379C7.05735 5.13127 6.42458 6.78869 6.3375 8.51817C6.13125 10.8896 6.68765 13.265 7.92562 15.2982C7.99396 15.2732 8.06681 15.263 8.13937 15.2682H8.19937C8.65289 15.26 9.0911 15.4323 9.41759 15.7471C9.74408 16.062 9.93211 16.4937 9.94031 16.9472C9.94852 17.4008 9.77623 17.839 9.46134 18.1654C9.14646 18.4919 8.71477 18.68 8.26125 18.6882H8.19937C7.75693 18.6866 7.33216 18.5143 7.0136 18.2073C6.69503 17.9003 6.50724 17.4821 6.48937 17.04V17.0457Z" fill="#764ABC"/>
</g>
<defs>
<clipPath id="clip0_13_270">
<rect width="24" height="24" fill="white"/>
</clipPath>
</defs>
</svg>
