<svg width="24" height="24" viewBox="0 0 24 24" fill="none" xmlns="http://www.w3.org/2000/svg">
<path d="M20.59 2.066L11.993 0L3.41 2.066V8.678H7.967C7.92693 8.99474 7.92693 9.31526 7.967 9.632H3.41V12.738C3.41 19.867 11.994 24 11.994 24C11.994 24 20.576 19.867 20.576 12.742V9.635H16.031C16.0733 9.31841 16.0733 8.99759 16.031 8.681H20.589L20.59 2.066ZM12 12.262H11.994C11.1697 12.2612 10.3795 11.9331 9.79702 11.3498C9.21457 10.7665 8.88761 9.9758 8.888 9.1515C8.8884 8.3272 9.21613 7.5368 9.79914 6.95408C10.3821 6.37135 11.1727 6.044 11.997 6.044C12.8213 6.044 13.6119 6.37135 14.1949 6.95408C14.7779 7.5368 15.1056 8.3272 15.106 9.1515C15.1064 9.9758 14.7794 10.7665 14.197 11.3498C13.6145 11.9331 12.8243 12.2612 12 12.262ZM11.994 7.683C11.8131 7.68203 11.6372 7.7421 11.4946 7.85349C11.3521 7.96487 11.2513 8.12107 11.2085 8.29683C11.1657 8.47259 11.1835 8.65765 11.2589 8.82208C11.3343 8.98651 11.4629 9.12072 11.624 9.203V9.411L11.862 9.648V9.807L12.021 9.966V10.125L11.881 10.265L12.031 10.511V10.67L11.871 10.859L12.094 11.081L12.34 10.835V9.218C12.5077 9.14124 12.644 9.00912 12.7259 8.84382C12.8078 8.67852 12.8303 8.49009 12.7898 8.31013C12.7492 8.13017 12.648 7.96963 12.5031 7.85545C12.3582 7.74126 12.1785 7.68038 11.994 7.683ZM11.994 8.519C11.9348 8.5192 11.8769 8.50183 11.8276 8.4691C11.7783 8.43636 11.7398 8.38973 11.7171 8.33512C11.6943 8.2805 11.6882 8.22035 11.6996 8.16228C11.7111 8.10422 11.7394 8.05085 11.7812 8.00893C11.823 7.96702 11.8763 7.93844 11.9343 7.92682C11.9923 7.9152 12.0525 7.92106 12.1072 7.94367C12.1619 7.96627 12.2086 8.00459 12.2415 8.05378C12.2744 8.10297 12.292 8.16082 12.292 8.22C12.292 8.29922 12.2607 8.37522 12.2048 8.43143C12.149 8.48763 12.0732 8.51947 11.994 8.52V8.519Z" fill="#6DB33F"/>
</svg>
