<svg width="27" height="24" viewBox="0 0 27 24" fill="none" xmlns="http://www.w3.org/2000/svg">
<g clip-path="url(#clip0_13_872)">
<path d="M26.4884 10.5583L21.2345 1.44168C20.7797 0.650065 19.6609 0 18.7461 0H8.24869C7.33906 0 6.21508 0.650065 5.76026 1.44168L0.511569 10.5583C0.0567516 11.3499 0.0567516 12.6448 0.511569 13.4364L5.76026 22.5583C6.21508 23.3499 7.33383 24 8.24869 24H18.7513C19.6609 24 20.7797 23.3499 21.2397 22.5583L26.4884 13.4364C26.9432 12.6448 26.9432 11.3499 26.4884 10.5583ZM12.363 5.04325C12.363 4.44561 12.8491 3.95806 13.4451 3.95806C14.0411 3.95806 14.5273 4.44561 14.5273 5.04325V11.5282C14.5273 12.1258 14.0411 12.6134 13.4451 12.6134C12.8491 12.6134 12.363 12.1258 12.363 11.5282V5.04325ZM13.4451 18.8886C9.3988 18.8886 6.1053 15.5858 6.1053 11.5282C6.11053 9.20052 7.20836 7.01442 9.06945 5.61992C9.49813 5.30013 10.0993 5.38925 10.4182 5.81914C10.7371 6.24902 10.6482 6.8519 10.2196 7.17169C7.82001 8.95937 7.31814 12.3617 9.10082 14.768C10.8835 17.1743 14.2763 17.6776 16.6759 15.8899C18.0508 14.8676 18.8611 13.2477 18.8611 11.5282C18.8559 9.80341 18.0403 8.18349 16.655 7.15596C16.2263 6.84142 16.1374 6.23329 16.4511 5.80341C16.7648 5.37353 17.3712 5.2844 17.7999 5.59895C19.6766 6.9882 20.7797 9.19004 20.7849 11.5282C20.7849 15.5911 17.4914 18.8886 13.4451 18.8886Z" fill="#6DB33F"/>
</g>
<defs>
<clipPath id="clip0_13_872">
<rect width="27" height="24" fill="white"/>
</clipPath>
</defs>
</svg>
