<svg width="24" height="24" viewBox="0 0 24 24" fill="none" xmlns="http://www.w3.org/2000/svg">
<g clip-path="url(#clip0_13_826)">
<path d="M0 22.0069V16.3635L6.52425 11.1007C7.97663 9.92924 9.39375 9.56024 10.9048 10.3971C11.4943 10.7233 11.7041 11.8031 11.3258 12.6351L0 22.0069Z" fill="url(#paint0_linear_13_826)"/>
<path d="M6.16406 11.4883C7.38225 10.0073 9.02119 8.6779 10.9466 7.51427C12.2222 6.74365 13.2478 8.32559 12.1455 9.91165C11.0036 11.416 9.44925 12.7106 8.1825 13.5986C7.332 14.1947 5.60944 12.163 6.16406 11.4883Z" fill="url(#paint1_linear_13_826)"/>
<path d="M6.16406 11.4883C7.38225 10.0073 9.02119 8.6779 10.9466 7.51427C12.2222 6.74365 13.2478 8.32559 12.1455 9.91165C11.0036 11.416 9.44925 12.7106 8.1825 13.5986C7.332 14.1947 5.60944 12.163 6.16406 11.4883Z" fill="url(#paint2_radial_13_826)"/>
<path d="M0 22.0069V23.8843H5.51756L15.6283 15.6692C16.6464 14.6942 16.5309 13.0742 16.026 12.1881C14.9674 10.3282 12.7972 12.006 11.3257 12.6351L0 22.0069Z" fill="url(#paint3_linear_13_826)"/>
<path d="M11.0124 12.7631C11.9899 11.6915 16.3104 7.93049 17.1084 8.74086C17.8341 9.47811 17.436 11.103 15.7059 13.0121C14.3355 14.5236 12.609 15.5413 11.7112 14.8299C10.9661 14.2404 10.4422 13.3882 11.0124 12.7631Z" fill="url(#paint4_linear_13_826)"/>
<path d="M11.0124 12.7631C11.9899 11.6915 16.3104 7.93049 17.1084 8.74086C17.8341 9.47811 17.436 11.103 15.7059 13.0121C14.3355 14.5236 12.609 15.5413 11.7112 14.8299C10.9661 14.2404 10.4422 13.3882 11.0124 12.7631Z" fill="url(#paint5_radial_13_826)"/>
<path d="M5.51756 23.8843H13.9956C16.2602 21.6947 19.1019 19.0907 17.9194 17.0518C17.2226 15.852 16.4156 15.633 15.6283 15.669L5.51756 23.8843Z" fill="url(#paint6_linear_13_826)"/>
<path d="M18.8977 13.8499C18.6525 12.3772 13.4807 16.7709 13.1689 17.3516C12.8674 17.913 13.6397 20.0632 14.8633 19.5139C16.4299 18.7736 19.3039 16.2877 18.8977 13.8499Z" fill="url(#paint7_linear_13_826)"/>
<path d="M18.8977 13.8499C18.6525 12.3772 13.4807 16.7709 13.1689 17.3516C12.8674 17.913 13.6397 20.0632 14.8633 19.5139C16.4299 18.7736 19.3039 16.2877 18.8977 13.8499Z" fill="url(#paint8_radial_13_826)"/>
<path d="M19.2289 10.7175C17.5401 11.9884 18.6349 14.0597 16.6811 15.1917C19.2332 15.7195 20.8061 12.1551 20.3919 10.8477L19.2289 10.7175Z" fill="url(#paint9_linear_13_826)"/>
<path d="M19.2289 10.7175C17.5401 11.9884 18.6349 14.0597 16.6811 15.1917C19.2332 15.7195 20.8061 12.1551 20.3919 10.8477L19.2289 10.7175Z" fill="url(#paint10_radial_13_826)"/>
<path d="M22.5662 3.845L20.3949 10.9888C19.9832 11.1541 19.5043 11.0403 19.2328 10.706L20.9524 3.33838L22.5662 3.845Z" fill="url(#paint11_linear_13_826)"/>
<path d="M24 0.115723V4.59697C22.5071 5.1921 18.7294 3.70354 19.1693 2.29916L19.8527 0.115723H24Z" fill="url(#paint12_linear_13_826)"/>
</g>
<defs>
<linearGradient id="paint0_linear_13_826" x1="2.82195" y1="13.6762" x2="5.63232" y2="17.1959" gradientUnits="userSpaceOnUse">
<stop offset="0.085" stop-color="#CC7F12"/>
<stop offset="0.127" stop-color="#FFC22F"/>
<stop offset="0.5" stop-color="#FFD468"/>
<stop offset="1" stop-color="#FFD255"/>
</linearGradient>
<linearGradient id="paint1_linear_13_826" x1="7.81625" y1="9.22318" x2="10.3119" y2="12.1969" gradientUnits="userSpaceOnUse">
<stop stop-color="#BF4F95"/>
<stop offset="0.284" stop-color="#D26AAA"/>
<stop offset="0.588" stop-color="#DC81BB"/>
<stop offset="0.711" stop-color="#D76CAD"/>
<stop offset="0.825" stop-color="#D26CAB"/>
<stop offset="0.957" stop-color="#CA629D"/>
<stop offset="1" stop-color="#C96499"/>
</linearGradient>
<radialGradient id="paint2_radial_13_826" cx="0" cy="0" r="1" gradientUnits="userSpaceOnUse" gradientTransform="translate(9.49507 10.4399) rotate(44.1948) scale(2.34323 4.43811)">
<stop stop-color="#B94481" stop-opacity="0"/>
<stop offset="0.694" stop-color="#B94481" stop-opacity="0.186"/>
<stop offset="1" stop-color="#B94481"/>
</radialGradient>
<linearGradient id="paint3_linear_13_826" x1="6.5866" y1="15.9615" x2="10.3244" y2="20.4581" gradientUnits="userSpaceOnUse">
<stop offset="0.027" stop-color="#CC7F12"/>
<stop offset="0.157" stop-color="#FFC22F"/>
<stop offset="0.5" stop-color="#FFD468"/>
<stop offset="1" stop-color="#FFD255"/>
</linearGradient>
<linearGradient id="paint4_linear_13_826" x1="13.2755" y1="10.8813" x2="15.2013" y2="13.1326" gradientUnits="userSpaceOnUse">
<stop stop-color="#BF4F95"/>
<stop offset="0.284" stop-color="#D26AAA"/>
<stop offset="0.588" stop-color="#DC81BA"/>
<stop offset="0.711" stop-color="#D76CAD"/>
<stop offset="0.825" stop-color="#D26CAB"/>
<stop offset="0.957" stop-color="#CA629D"/>
<stop offset="1" stop-color="#C96499"/>
</linearGradient>
<radialGradient id="paint5_radial_13_826" cx="0" cy="0" r="1" gradientUnits="userSpaceOnUse" gradientTransform="translate(14.1116 11.8445) rotate(42.0704) scale(2.53824 4.47183)">
<stop stop-color="#B94481" stop-opacity="0"/>
<stop offset="0.694" stop-color="#B94481" stop-opacity="0.186"/>
<stop offset="1" stop-color="#B94481"/>
</radialGradient>
<linearGradient id="paint6_linear_13_826" x1="10.5175" y1="19.2576" x2="14.2631" y2="23.9092" gradientUnits="userSpaceOnUse">
<stop offset="0.027" stop-color="#CC7F12"/>
<stop offset="0.157" stop-color="#FFC22F"/>
<stop offset="0.5" stop-color="#FFD468"/>
<stop offset="1" stop-color="#FFD255"/>
</linearGradient>
<linearGradient id="paint7_linear_13_826" x1="14.8767" y1="15.2843" x2="16.8514" y2="17.6566" gradientUnits="userSpaceOnUse">
<stop stop-color="#BF4F95"/>
<stop offset="0.284" stop-color="#D26AAA"/>
<stop offset="0.588" stop-color="#DC81BB"/>
<stop offset="0.711" stop-color="#D76CAD"/>
<stop offset="0.825" stop-color="#D26CAB"/>
<stop offset="0.957" stop-color="#CA629D"/>
<stop offset="1" stop-color="#C96499"/>
</linearGradient>
<radialGradient id="paint8_radial_13_826" cx="0" cy="0" r="1" gradientUnits="userSpaceOnUse" gradientTransform="translate(16.0158 16.717) rotate(-40.4719) scale(4.61129 1.73616)">
<stop stop-color="#B94481" stop-opacity="0"/>
<stop offset="0.644" stop-color="#B94481" stop-opacity="0.186"/>
<stop offset="1" stop-color="#B94481"/>
</radialGradient>
<linearGradient id="paint9_linear_13_826" x1="19.6573" y1="11.8294" x2="17.6933" y2="14.796" gradientUnits="userSpaceOnUse">
<stop stop-color="#DC83B9"/>
<stop offset="0.159" stop-color="#DE77B5"/>
<stop offset="0.56" stop-color="#DD74B3"/>
<stop offset="0.797" stop-color="#D65FA3"/>
<stop offset="1" stop-color="#C95195" stop-opacity="0.992"/>
</linearGradient>
<radialGradient id="paint10_radial_13_826" cx="0" cy="0" r="1" gradientUnits="userSpaceOnUse" gradientTransform="translate(18.9538 13.1677) rotate(20.4815) scale(1.2529 2.72955)">
<stop stop-color="#B94481" stop-opacity="0"/>
<stop offset="0.644" stop-color="#B94481" stop-opacity="0.186"/>
<stop offset="1" stop-color="#B94481"/>
</radialGradient>
<linearGradient id="paint11_linear_13_826" x1="19.2321" y1="7.20149" x2="22.7189" y2="8.08663" gradientUnits="userSpaceOnUse">
<stop offset="0.195" stop-color="#974377"/>
<stop offset="0.247" stop-color="#CC76AC"/>
<stop offset="0.33" stop-color="#F5A3D4"/>
<stop offset="0.39" stop-color="#FCA6DA"/>
<stop offset="0.476" stop-color="#E980C1"/>
<stop offset="0.62" stop-color="#A34D81"/>
</linearGradient>
<linearGradient id="paint12_linear_13_826" x1="19.1333" y1="2.42343" x2="24.2653" y2="3.88375" gradientUnits="userSpaceOnUse">
<stop offset="0.021" stop-color="#A65486"/>
<stop offset="0.095" stop-color="#DB77B4"/>
<stop offset="0.146" stop-color="#F188C8"/>
<stop offset="0.255" stop-color="#FFADDF"/>
<stop offset="0.372" stop-color="#FFADDF"/>
<stop offset="0.576" stop-color="#EE84C5"/>
<stop offset="0.747" stop-color="#DA6FB0"/>
<stop offset="1" stop-color="#A63D7B"/>
</linearGradient>
<clipPath id="clip0_13_826">
<rect width="24" height="24" fill="white"/>
</clipPath>
</defs>
</svg>
