<svg width="24" height="24" viewBox="0 0 24 24" fill="none" xmlns="http://www.w3.org/2000/svg">
<g clip-path="url(#clip0_13_843)">
<path d="M12.0008 4.80042C8.8007 4.80042 6.80139 6.39979 6.00076 9.59985C7.20039 8.00029 8.60083 7.40048 10.2004 7.80042C11.1137 8.02804 11.7664 8.69029 12.4892 9.42417C13.6656 10.618 15.0272 12 18.0008 12C21.2006 12 23.2001 10.4005 24.0008 7.19967C22.8008 8.80004 21.4008 9.40017 19.801 9.00004C18.8878 8.77223 18.2359 8.11017 17.5121 7.37629C16.3365 6.18248 14.9753 4.80042 12.0008 4.80042ZM6.00076 12C2.80089 12 0.801388 13.5996 0.000762939 16.8004C1.20064 15.2 2.60051 14.5999 4.20039 15C5.1137 15.2279 5.76639 15.8899 6.4892 16.6238C7.66558 17.8176 9.0272 19.1997 12.0008 19.1997C15.2006 19.1997 17.2001 17.6003 18.0008 14.4002C16.8008 15.9999 15.4008 16.5997 13.801 16.1997C12.8878 15.972 12.2359 15.3098 11.5121 14.5759C10.3365 13.3821 8.97526 12 6.00076 12Z" fill="#38BDF8"/>
</g>
<defs>
<clipPath id="clip0_13_843">
<rect width="24" height="24" fill="white"/>
</clipPath>
</defs>
</svg>
