<svg width="30" height="30" viewBox="0 0 30 30" fill="none" xmlns="http://www.w3.org/2000/svg">
<path d="M15 4.99998L15.8838 4.11623L15 3.23248L14.1163 4.11623L15 4.99998ZM13.75 23.75C13.75 24.0815 13.8817 24.3994 14.1162 24.6339C14.3506 24.8683 14.6685 25 15 25C15.3316 25 15.6495 24.8683 15.8839 24.6339C16.1183 24.3994 16.25 24.0815 16.25 23.75H13.75ZM23.3838 11.6162L15.8838 4.11623L14.1163 5.88373L21.6163 13.3837L23.3838 11.6162ZM14.1163 4.11623L6.61629 11.6162L8.38379 13.3837L15.8838 5.88373L14.1163 4.11623ZM13.75 4.99998V23.75H16.25V4.99998H13.75Z" fill="#1E1E1E"/>
</svg>
