<svg width="17" height="17" viewBox="0 0 17 17" fill="none" xmlns="http://www.w3.org/2000/svg">
<path d="M2.5 12.5H7.5V13.5H2.5V12.5ZM2.5 9.5H7.5V10.5H2.5V9.5ZM13.5 7.5H3.5C3.23478 7.5 2.98043 7.39464 2.79289 7.20711C2.60536 7.01957 2.5 6.76522 2.5 6.5V3.5C2.5 3.23478 2.60536 2.98043 2.79289 2.79289C2.98043 2.60536 3.23478 2.5 3.5 2.5H13.5C13.7652 2.5 14.0196 2.60536 14.2071 2.79289C14.3946 2.98043 14.5 3.23478 14.5 3.5V6.5C14.5 6.76522 14.3946 7.01957 14.2071 7.20711C14.0196 7.39464 13.7652 7.5 13.5 7.5ZM3.5 3.5V6.5H13.5V3.5H3.5ZM13.5 14.5H10.5C10.2348 14.5 9.98043 14.3946 9.79289 14.2071C9.60536 14.0196 9.5 13.7652 9.5 13.5V10.5C9.5 10.2348 9.60536 9.98043 9.79289 9.79289C9.98043 9.60536 10.2348 9.5 10.5 9.5H13.5C13.7652 9.5 14.0196 9.60536 14.2071 9.79289C14.3946 9.98043 14.5 10.2348 14.5 10.5V13.5C14.5 13.7652 14.3946 14.0196 14.2071 14.2071C14.0196 14.3946 13.7652 14.5 13.5 14.5ZM10.5 10.5V13.5H13.5V10.5H10.5Z" fill="white"/>
</svg>
