<svg width="21" height="21" viewBox="0 0 21 21" fill="none" xmlns="http://www.w3.org/2000/svg">
<path d="M13 18V11.3333C13 11.1123 12.9122 10.9004 12.7559 10.7441C12.5996 10.5878 12.3877 10.5 12.1667 10.5H8.83333C8.61232 10.5 8.40036 10.5878 8.24408 10.7441C8.0878 10.9004 8 11.1123 8 11.3333V18" stroke-linecap="round" stroke-linejoin="round"/>
<path d="M3 8.83333C2.99994 8.59089 3.05278 8.35135 3.15482 8.13143C3.25687 7.91151 3.40566 7.7165 3.59083 7.56L9.42417 2.56083C9.72499 2.30659 10.1061 2.1671 10.5 2.1671C10.8939 2.1671 11.275 2.30659 11.5758 2.56083L17.4092 7.56C17.5943 7.7165 17.7431 7.91151 17.8452 8.13143C17.9472 8.35135 18.0001 8.59089 18 8.83333V16.3333C18 16.7754 17.8244 17.1993 17.5118 17.5118C17.1993 17.8244 16.7754 18 16.3333 18H4.66667C4.22464 18 3.80072 17.8244 3.48816 17.5118C3.17559 17.1993 3 16.7754 3 16.3333V8.83333Z" stroke-linecap="round" stroke-linejoin="round"/>
</svg>
