<svg width="376" height="148" viewBox="0 0 376 148" fill="none" xmlns="http://www.w3.org/2000/svg">
<g filter="url(#filter0_d_138_36)">
<path d="M20.532 78.828C20.6173 81.9 20.66 84.972 20.66 88.044C20.7453 91.116 20.788 94.2307 20.788 97.388C20.788 98.4973 20.788 99.7347 20.788 101.1C20.788 102.38 20.8307 103.66 20.916 104.94C21.0013 106.647 21.5133 107.713 22.452 108.14C23.3907 108.567 24.4147 108.737 25.524 108.652C27.2307 108.737 28.724 108.78 30.004 108.78C31.284 108.865 32.5213 108.908 33.716 108.908C34.9107 108.908 36.148 108.865 37.428 108.78C38.708 108.695 40.2013 108.609 41.908 108.524C42.5907 108.353 43.06 108.14 43.316 107.884C43.572 107.628 43.828 107.159 44.084 106.476C44.596 104.769 44.8947 102.849 44.98 100.716C45.1507 98.4973 45.1933 96.236 45.108 93.932C45.0227 91.628 44.8947 89.3667 44.724 87.148C44.6387 84.844 44.5533 82.7107 44.468 80.748C44.3827 77.5053 44.4253 74.2627 44.596 71.02C44.7667 67.7773 44.9373 64.5347 45.108 61.292C45.2787 57.964 45.4067 54.6787 45.492 51.436C45.5773 48.1933 45.5347 44.9507 45.364 41.708C45.1933 38.636 45.108 35.5213 45.108 32.364C45.1933 29.1213 44.8947 26.0067 44.212 23.02C43.8707 21.8253 43.1453 21.0573 42.036 20.716C39.1347 20.5453 36.148 20.5027 33.076 20.588C30.004 20.588 27.0173 20.6307 24.116 20.716C22.4947 20.8867 21.2573 21.2707 20.404 21.868C19.636 22.38 19.38 23.66 19.636 25.708C19.7213 34.668 19.8493 43.5427 20.02 52.332C20.1907 61.1213 20.3613 69.9533 20.532 78.828ZM16.436 57.708C16.2653 52.588 16.1373 47.2547 16.052 41.708C16.052 36.1613 16.0093 30.828 15.924 25.708C15.924 25.6227 15.8813 25.5373 15.796 25.452C15.796 25.3667 15.796 25.2387 15.796 25.068V25.324C15.54 23.1053 16.052 21.1853 17.332 19.564C18.6973 17.8573 20.66 17.004 23.22 17.004H24.116C24.5427 17.004 24.9693 17.004 25.396 17.004C25.908 16.9187 26.3773 16.876 26.804 16.876C29.5347 16.876 32.2227 16.876 34.868 16.876C37.5133 16.7907 40.2013 16.8333 42.932 17.004C43.3587 17.0893 43.9133 17.3027 44.596 17.644C44.852 17.8147 45.3213 18.2413 46.004 18.924C46.772 19.6067 47.5827 20.3747 48.436 21.228C49.3747 21.996 50.228 22.8067 50.996 23.66C51.8493 24.5133 52.4467 25.1107 52.788 25.452C53.3853 26.1347 53.812 27.0733 54.068 28.268C54.6653 30.6573 55.0067 33.0467 55.092 35.436C55.1773 37.8253 55.22 40.2147 55.22 42.604C55.22 43.5427 55.22 44.4387 55.22 45.292C55.22 46.06 55.2627 46.8707 55.348 47.724C55.4333 48.8333 55.476 49.9427 55.476 51.052C55.476 52.076 55.476 53.1427 55.476 54.252C55.476 56.812 55.4333 59.4147 55.348 62.06C55.2627 64.7053 55.1347 67.2653 54.964 69.74C54.7933 72.6413 54.6227 75.5427 54.452 78.444C54.3667 81.26 54.3667 84.1187 54.452 87.02C54.452 87.9587 54.452 88.8547 54.452 89.708C54.5373 90.5613 54.6227 91.5 54.708 92.524C54.7933 94.2307 54.8787 95.98 54.964 97.772C55.0493 99.564 55.092 101.313 55.092 103.02C55.092 105.068 55.0067 106.988 54.836 108.78C54.6653 110.657 54.3667 112.407 53.94 114.028C53.428 115.393 52.8307 116.417 52.148 117.1C51.5507 117.783 50.484 118.252 48.948 118.508C46.2173 118.679 43.444 118.764 40.628 118.764C37.8973 118.849 35.0387 118.807 32.052 118.636C30.8573 118.721 29.7053 118.636 28.596 118.38C27.4867 118.209 26.5053 117.783 25.652 117.1C25.2253 116.759 24.7133 116.289 24.116 115.692C23.5187 115.095 22.8787 114.455 22.196 113.772C21.5987 113.175 20.9587 112.535 20.276 111.852C19.6787 111.255 19.2093 110.7 18.868 110.188C17.7587 108.993 17.1613 107.287 17.076 105.068C16.9907 103.873 16.948 102.551 16.948 101.1C16.948 99.6493 16.948 98.412 16.948 97.388C16.948 94.2307 16.9053 91.1587 16.82 88.172C16.82 85.1 16.7773 82.028 16.692 78.956L16.436 57.708ZM130.606 108.524C132.739 108.524 134.958 108.524 137.262 108.524C139.651 108.609 141.955 108.652 144.174 108.652C145.113 108.396 145.753 107.884 146.094 107.116C146.435 106.263 146.393 105.495 145.966 104.812V104.556C145.539 93.9747 145.326 83.692 145.326 73.708C145.326 63.6387 145.283 53.356 145.198 42.86C145.198 40.044 145.198 36.8867 145.198 33.388C145.198 29.8893 145.283 26.3907 145.454 22.892C145.539 20.7587 144.601 19.564 142.638 19.308H125.23C124.547 19.3933 123.907 19.6493 123.31 20.076C122.713 20.5027 122.414 21.1427 122.414 21.996C122.414 26.2627 122.457 30.2307 122.542 33.9C122.713 37.484 122.841 40.94 122.926 44.268C123.097 47.5107 123.139 50.7107 123.054 53.868C123.054 56.94 122.883 60.0547 122.542 63.212C119.385 59.372 116.227 55.532 113.07 51.692C109.913 47.852 106.713 44.012 103.47 40.172C101.251 37.4413 98.9473 34.7107 96.558 31.98C94.1687 29.164 92.0353 26.2627 90.158 23.276C89.646 22.3373 89.0913 21.6547 88.494 21.228C87.8967 20.716 87.2993 20.4173 86.702 20.332C86.1047 20.1613 85.55 20.1187 85.038 20.204C84.526 20.204 84.014 20.204 83.502 20.204H73.134C71.9393 20.0333 71.0007 20.204 70.318 20.716C69.6353 21.1427 69.3367 21.9107 69.422 23.02C69.5073 31.3827 69.6353 39.4893 69.806 47.34C69.9767 55.1907 70.1047 63.2973 70.19 71.66C70.2753 75.0733 70.318 78.4867 70.318 81.9C70.4033 85.3133 70.446 88.7693 70.446 92.268C70.5313 94.7427 70.5313 97.3027 70.446 99.948C70.3607 102.508 70.574 105.025 71.086 107.5C74.3287 107.841 77.8273 108.012 81.582 108.012C85.3367 108.097 88.8353 107.969 92.078 107.628C93.2727 106.945 93.7847 106.135 93.614 105.196C93.5287 104.172 92.974 103.489 91.95 103.148C92.206 102.124 92.334 100.759 92.334 99.052C92.334 97.3453 92.2913 95.596 92.206 93.804C92.206 92.012 92.1633 90.3053 92.078 88.684C91.9927 87.0627 91.95 85.74 91.95 84.716C91.95 80.7053 91.9927 76.5667 92.078 72.3C92.1633 68.0333 92.2487 63.8947 92.334 59.884C98.478 67.3933 104.409 74.988 110.126 82.668C115.843 90.2627 121.859 97.8147 128.174 105.324C128.003 106.007 128.131 106.689 128.558 107.372C128.985 107.969 129.667 108.353 130.606 108.524ZM136.878 118.508C135.598 118.252 134.403 117.783 133.294 117.1C132.27 116.417 131.289 115.649 130.35 114.796C129.411 113.943 128.558 113.089 127.79 112.236C127.022 111.468 126.339 110.828 125.742 110.316C124.718 109.463 124.206 108.311 124.206 106.86C120.11 102.423 116.313 97.772 112.814 92.908C109.315 88.044 105.731 83.18 102.062 78.316C102.062 82.412 102.105 86.508 102.19 90.604C102.275 94.7 102.318 99.052 102.318 103.66C102.318 104.428 102.318 105.111 102.318 105.708C102.318 106.305 102.275 106.945 102.19 107.628C103.214 108.993 103.555 110.657 103.214 112.62C102.958 114.668 101.721 116.289 99.502 117.484C97.5393 117.655 95.6193 117.783 93.742 117.868C91.95 117.953 90.3287 117.996 88.878 117.996C84.6113 117.996 79.79 117.74 74.414 117.228C72.9633 116.204 71.726 115.095 70.702 113.9C69.678 112.791 68.8247 111.809 68.142 110.956C67.7153 109.079 67.374 107.457 67.118 106.092C66.9473 104.641 66.8193 103.361 66.734 102.252C66.734 101.143 66.734 100.161 66.734 99.308C66.734 98.4547 66.734 97.5587 66.734 96.62V92.268C66.734 90.5613 66.734 88.7267 66.734 86.764C66.734 84.8013 66.6913 82.1987 66.606 78.956C66.5207 75.7133 66.4353 71.6173 66.35 66.668C66.2647 61.6333 66.1367 55.2333 65.966 47.468C65.7953 43.7133 65.6673 39.7453 65.582 35.564C65.582 31.3827 65.582 27.2867 65.582 23.276C65.4113 20.8013 66.1367 19.0093 67.758 17.9C69.3793 16.7907 71.2993 16.3213 73.518 16.492H84.142C84.91 16.4067 85.7207 16.4067 86.574 16.492C87.5127 16.492 88.4513 16.748 89.39 17.26C90.7553 17.8573 92.078 18.9667 93.358 20.588C94.638 22.2093 95.6193 23.6173 96.302 24.812C96.8993 25.836 97.7527 27.0307 98.862 28.396C100.057 29.7613 101.294 31.1693 102.574 32.62C103.854 34.0707 105.091 35.4787 106.286 36.844C107.566 38.2093 108.633 39.404 109.486 40.428C109.742 40.684 110.041 41.0253 110.382 41.452C110.723 41.7933 111.235 42.3907 111.918 43.244C112.601 44.0973 113.497 45.2493 114.606 46.7C115.801 48.0653 117.379 49.9 119.342 52.204C119.342 49.9853 119.299 47.852 119.214 45.804C119.214 43.6707 119.129 41.452 118.958 39.148C118.702 34.028 118.574 28.3107 118.574 21.996C118.574 20.2893 119.171 18.8387 120.366 17.644C121.646 16.4493 123.225 15.724 125.102 15.468H143.15C143.833 15.6387 144.43 15.852 144.942 16.108C145.454 16.364 145.966 16.7053 146.478 17.132C147.502 18.0707 148.654 19.18 149.934 20.46C151.299 21.74 152.451 22.8493 153.39 23.788C154.755 25.1533 155.438 26.988 155.438 29.292C155.353 31.9373 155.31 34.7533 155.31 37.74C155.31 40.6413 155.31 43.3293 155.31 45.804C155.395 50.5827 155.438 55.02 155.438 59.116C155.438 63.1267 155.438 66.6253 155.438 69.612C155.438 76.4387 155.438 83.0947 155.438 89.58C155.523 95.98 155.694 102.849 155.95 110.188C156.803 111.809 156.718 113.473 155.694 115.18C154.755 116.887 153.091 118.039 150.702 118.636C148.313 118.636 146.35 118.636 144.814 118.636C143.278 118.636 141.998 118.593 140.974 118.508C140.035 118.508 139.225 118.508 138.542 118.508C137.945 118.508 137.39 118.508 136.878 118.508ZM222.592 105.58C225.323 100.289 227.925 94.572 230.4 88.428C232.875 82.1987 235.307 75.5 237.696 68.332C240.427 61.164 242.944 53.868 245.248 46.444C247.637 39.02 250.155 31.8093 252.8 24.812C253.141 23.6173 253.056 22.7213 252.544 22.124C252.032 21.5267 251.307 21.2707 250.368 21.356C250.112 21.1853 249.771 21.1 249.344 21.1C249.003 21.1 248.619 21.1 248.192 21.1C245.461 21.1 242.773 21.1427 240.128 21.228C237.483 21.3133 234.795 21.356 232.064 21.356C231.637 21.356 231.168 21.3987 230.656 21.484C230.229 21.5693 229.547 21.5267 228.608 21.356C227.669 21.5267 227.115 22.0813 226.944 23.02C226.773 23.9587 226.517 24.8547 226.176 25.708C223.275 34.3267 220.587 43.0307 218.112 51.82C215.637 60.6093 212.693 69.2707 209.28 77.804C208.939 76.3533 208.299 74.3907 207.36 71.916C206.507 69.356 205.483 66.4973 204.288 63.34C203.093 60.1827 201.813 56.8547 200.448 53.356C199.083 49.772 197.76 46.2307 196.48 42.732C195.2 39.2333 194.005 35.8627 192.896 32.62C191.787 29.292 190.891 26.348 190.208 23.788C190.635 22.8493 190.677 21.9533 190.336 21.1C189.995 20.1613 189.312 19.8627 188.288 20.204H167.936C167.253 20.0333 166.699 20.1613 166.272 20.588C165.845 20.9293 165.547 21.3987 165.376 21.996C165.291 22.5933 165.248 23.2333 165.248 23.916C165.333 24.5987 165.461 25.196 165.632 25.708C167.509 30.6573 169.301 35.4787 171.008 40.172C172.715 44.8653 174.379 49.516 176 54.124C177.621 58.6467 179.243 63.212 180.864 67.82C182.571 72.3427 184.363 76.9507 186.24 81.644C186.752 83.5213 187.52 85.5693 188.544 87.788C189.568 90.0067 190.635 92.2253 191.744 94.444C192.939 96.5773 194.091 98.6253 195.2 100.588C196.395 102.465 197.333 104.001 198.016 105.196C199.125 106.903 200.235 107.841 201.344 108.012C202.453 108.183 203.861 108.012 205.568 107.5C206.251 107.5 207.445 107.543 209.152 107.628C210.944 107.713 212.779 107.713 214.656 107.628C216.619 107.543 218.368 107.372 219.904 107.116C221.44 106.775 222.336 106.263 222.592 105.58ZM251.264 17.644C252.715 17.644 253.995 18.1133 255.104 19.052C255.616 19.4787 256.213 20.0333 256.896 20.716C257.579 21.3987 258.261 22.0813 258.944 22.764C259.712 23.4467 260.352 24.1293 260.864 24.812C261.461 25.4093 261.888 25.8787 262.144 26.22C263.253 27.756 263.381 29.7613 262.528 32.236C259.883 39.148 257.451 46.188 255.232 53.356C253.099 60.4387 250.539 67.9907 247.552 76.012V75.884C245.077 83.2227 242.56 90.0493 240 96.364C237.525 102.679 234.923 108.396 232.192 113.516C231.424 114.967 230.315 115.948 228.864 116.46C227.499 117.057 226.005 117.441 224.384 117.612C222.763 117.783 221.099 117.783 219.392 117.612C217.771 117.527 216.32 117.484 215.04 117.484H212.608C210.133 118.252 208.085 118.465 206.464 118.124C204.843 117.783 203.136 116.375 201.344 113.9C199.893 112.62 198.699 111.553 197.76 110.7C196.907 109.932 196.011 108.908 195.072 107.628L193.024 104.172C192.171 102.807 191.232 101.271 190.208 99.564C189.184 97.772 188.203 95.9373 187.264 94.06C186.325 92.1827 185.429 90.3053 184.576 88.428C183.808 86.5507 183.211 84.716 182.784 82.924C180.821 78.06 178.901 73.1533 177.024 68.204C175.232 63.2547 173.525 58.3907 171.904 53.612C170.368 49.26 168.789 44.908 167.168 40.556C165.632 36.204 163.968 31.724 162.176 27.116C161.664 26.0067 161.408 24.7693 161.408 23.404C161.408 22.0387 161.664 20.8013 162.176 19.692C162.688 18.4973 163.456 17.6013 164.48 17.004C165.589 16.3213 166.912 16.1507 168.448 16.492H187.776C189.739 15.98 191.275 16.236 192.384 17.26C193.493 18.1987 194.603 19.2653 195.712 20.46C196.821 21.6547 197.845 22.7213 198.784 23.66C199.552 24.428 200.064 25.4093 200.32 26.604C200.576 27.7987 200.576 28.9933 200.32 30.188C200.832 32.236 201.472 34.4973 202.24 36.972C203.093 39.3613 203.989 41.9213 204.928 44.652C205.952 47.2973 206.976 50.028 208 52.844C209.109 55.5747 210.176 58.3053 211.2 61.036L211.712 59.628V59.756C213.419 53.612 215.211 47.5107 217.088 41.452C218.965 35.308 220.928 29.2067 222.976 23.148C223.403 21.9533 223.872 20.844 224.384 19.82C224.896 18.7107 226.219 17.9427 228.352 17.516C228.864 17.6013 229.333 17.644 229.76 17.644H231.424C234.069 17.644 236.715 17.6013 239.36 17.516C242.091 17.4307 245.035 17.388 248.192 17.388H248.704C249.131 17.388 249.557 17.388 249.984 17.388C250.411 17.388 250.837 17.4733 251.264 17.644ZM268.096 26.476C270.741 30.7427 273.344 35.0947 275.904 39.532C278.549 43.9693 281.195 48.3213 283.84 52.588C286.485 56.8547 289.131 61.036 291.776 65.132C294.421 69.1427 297.109 72.8547 299.84 76.268C299.584 81.132 299.627 85.868 299.968 90.476C300.309 95.084 300.224 99.8627 299.712 104.812C299.712 105.409 299.968 106.135 300.48 106.988C301.077 107.756 301.931 108.14 303.04 108.14H322.24C322.837 108.14 323.349 107.756 323.776 106.988C324.203 106.135 324.416 105.409 324.416 104.812C324.416 99.6067 324.203 94.828 323.776 90.476C323.349 86.0387 322.837 81.2173 322.24 76.012C322.24 76.012 322.283 75.9693 322.368 75.884C323.563 74.0067 325.056 71.6173 326.848 68.716C328.725 65.7293 330.688 62.572 332.736 59.244C334.784 55.8307 336.832 52.3747 338.88 48.876C340.928 45.3773 342.763 42.0493 344.384 38.892C346.091 35.7347 347.456 32.9187 348.48 30.444C349.504 27.884 350.016 25.964 350.016 24.684C350.357 23.7453 350.357 22.8067 350.016 21.868C349.675 20.844 348.949 20.332 347.84 20.332H330.688C330.603 20.332 330.304 20.3747 329.792 20.46C329.365 20.46 328.853 20.588 328.256 20.844C327.659 21.0147 327.061 21.3133 326.464 21.74C325.952 22.0813 325.611 22.5933 325.44 23.276C323.307 27.9693 321.216 32.748 319.168 37.612C317.205 42.3907 314.859 46.828 312.128 50.924L294.08 21.356C293.483 20.7587 292.8 20.5027 292.032 20.588C291.264 20.588 290.581 20.8013 289.984 21.228C286.4 21.0573 283.115 20.9293 280.128 20.844C277.141 20.7587 273.856 20.844 270.272 21.1C269.248 21.1 268.523 21.5693 268.096 22.508C267.755 23.3613 267.712 24.1293 267.968 24.812C267.968 25.068 267.968 25.3667 267.968 25.708C267.968 25.964 268.011 26.22 268.096 26.476ZM264.512 27.372C264.341 26.9453 264.256 26.5613 264.256 26.22C264.256 25.8787 264.256 25.5373 264.256 25.196C263.829 23.4893 264.128 21.8253 265.152 20.204C266.176 18.4973 267.755 17.5587 269.888 17.388C271.168 17.2173 272.533 17.132 273.984 17.132C275.52 17.132 276.885 17.132 278.08 17.132C280.043 17.132 281.835 17.132 283.456 17.132C285.077 17.132 286.955 17.2173 289.088 17.388C290.283 16.7907 291.605 16.6627 293.056 17.004C294.507 17.26 295.915 18.028 297.28 19.308C298.219 20.4173 298.987 21.3133 299.584 21.996C300.267 22.6787 300.821 23.2333 301.248 23.66C301.76 24.0867 302.187 24.428 302.528 24.684C302.869 24.94 303.211 25.196 303.552 25.452L313.28 41.452C314.731 38.38 316.139 35.2653 317.504 32.108C318.955 28.8653 320.448 25.452 321.984 21.868C322.24 20.6733 322.837 19.7347 323.776 19.052C324.715 18.3693 325.653 17.8573 326.592 17.516C327.616 17.0893 328.512 16.8333 329.28 16.748C330.133 16.6627 330.603 16.62 330.688 16.62H347.84C349.547 16.62 350.955 17.1747 352.064 18.284C353.088 19.308 354.197 20.4173 355.392 21.612C356.587 22.7213 357.653 23.788 358.592 24.812C359.275 25.6653 359.744 26.6893 360 27.884C360.256 28.9933 360.256 30.1027 360 31.212C359.915 32.748 359.36 34.796 358.336 37.356C357.397 39.916 356.117 42.7747 354.496 45.932C352.96 49.004 351.168 52.2893 349.12 55.788C347.157 59.2867 345.152 62.7427 343.104 66.156C341.056 69.484 339.093 72.6413 337.216 75.628C335.339 78.5293 333.717 81.0467 332.352 83.18C332.523 83.6067 332.693 84.5027 332.864 85.868C333.12 87.148 333.291 88.7267 333.376 90.604C333.547 92.396 333.675 94.3587 333.76 96.492C333.931 98.54 334.059 100.545 334.144 102.508C334.229 104.471 334.272 106.22 334.272 107.756C334.357 109.292 334.4 110.401 334.4 111.084C334.4 111.681 334.229 112.364 333.888 113.132C333.547 113.985 333.12 114.753 332.608 115.436C332.096 116.204 331.456 116.844 330.688 117.356C330.005 117.868 329.28 118.124 328.512 118.124H309.312C307.691 118.124 306.325 117.655 305.216 116.716C304.704 116.289 304.064 115.735 303.296 115.052C302.613 114.369 301.888 113.644 301.12 112.876C300.437 112.193 299.755 111.511 299.072 110.828C298.475 110.145 298.005 109.548 297.664 109.036C297.067 108.353 296.64 107.628 296.384 106.86C296.128 106.007 296 105.281 296 104.684C296.427 100.417 296.512 96.108 296.256 91.756C296 87.404 295.915 82.6253 296 77.42C292.245 72.4707 288.576 67.18 284.992 61.548C281.493 55.8307 277.909 49.9 274.24 43.756V43.884C272.704 41.324 271.168 38.764 269.632 36.204C268.096 33.5587 266.56 30.9987 265.024 28.524L264.512 27.372Z" fill="url(#paint0_linear_138_36)"/>
</g>
<defs>
<filter id="filter0_d_138_36" x="0.412109" y="0.468018" width="374.972" height="133.424" filterUnits="userSpaceOnUse" color-interpolation-filters="sRGB">
<feFlood flood-opacity="0" result="BackgroundImageFix"/>
<feColorMatrix in="SourceAlpha" type="matrix" values="0 0 0 0 0 0 0 0 0 0 0 0 0 0 0 0 0 0 127 0" result="hardAlpha"/>
<feOffset/>
<feGaussianBlur stdDeviation="7.5"/>
<feComposite in2="hardAlpha" operator="out"/>
<feColorMatrix type="matrix" values="0 0 0 0 0.980392 0 0 0 0 0.980392 0 0 0 0 0.972549 0 0 0 1 0"/>
<feBlend mode="normal" in2="BackgroundImageFix" result="effect1_dropShadow_138_36"/>
<feBlend mode="normal" in="SourceGraphic" in2="effect1_dropShadow_138_36" result="shape"/>
</filter>
<linearGradient id="paint0_linear_138_36" x1="182" y1="2.5" x2="182" y2="147.5" gradientUnits="userSpaceOnUse">
<stop stop-color="#FAFAF8"/>
<stop offset="1" stop-color="#CCCCCB"/>
</linearGradient>
</defs>
</svg>
