<svg width="20" height="21" viewBox="0 0 20 21" fill="none" xmlns="http://www.w3.org/2000/svg">
<path d="M10 10.0833C9.44749 10.0833 8.91758 9.86384 8.52688 9.47314C8.13618 9.08244 7.91669 8.55254 7.91669 8C7.91669 7.44747 8.13618 6.91757 8.52688 6.52687C8.91758 6.13617 9.44749 5.91667 10 5.91667C10.5526 5.91667 11.0825 6.13617 11.4732 6.52687C11.8639 6.91757 12.0834 7.44747 12.0834 8C12.0834 8.27359 12.0295 8.5445 11.9248 8.79726C11.8201 9.05002 11.6666 9.27969 11.4732 9.47314C11.2797 9.6666 11.05 9.82006 10.7973 9.92475C10.5445 10.0295 10.2736 10.0833 10 10.0833ZM10 2.16667C8.45292 2.16667 6.96919 2.78125 5.87523 3.87522C4.78127 4.96918 4.16669 6.45291 4.16669 8C4.16669 12.375 10 18.8333 10 18.8333C10 18.8333 15.8334 12.375 15.8334 8C15.8334 6.45291 15.2188 4.96918 14.1248 3.87522C13.0308 2.78125 11.5471 2.16667 10 2.16667Z" fill="white"/>
</svg>
