<svg width="20" height="21" viewBox="0 0 20 21" fill="none" xmlns="http://www.w3.org/2000/svg">
<path d="M16.6667 3.83333H5.00004C4.08087 3.83333 3.33337 4.58083 3.33337 5.5V9.66667H5.00004V7.16667L10.3334 11.1667C10.4776 11.2749 10.6531 11.3333 10.8334 11.3333C11.0137 11.3333 11.1891 11.2749 11.3334 11.1667L16.6667 7.16667V14.6667H10V16.3333H16.6667C17.5859 16.3333 18.3334 15.5858 18.3334 14.6667V5.5C18.3334 4.58083 17.5859 3.83333 16.6667 3.83333ZM10.8334 9.45833L5.55504 5.5H16.1117L10.8334 9.45833Z" fill="white"/>
<path d="M1.66663 10.5H7.49996V12.1667H1.66663V10.5ZM3.33329 13H8.33329V14.6667H3.33329V13ZM5.83329 15.5H9.16663V17.1667H5.83329V15.5Z" fill="white"/>
</svg>
